<svg width="3024" height="1605" viewBox="0 0 3024 1605" fill="none" xmlns="http://www.w3.org/2000/svg">
<path d="M40.8534 1035.82C-0.813293 976.49 -44.4466 834.423 114.353 740.823C312.853 623.823 292.354 885.823 444.854 796.823C597.354 707.823 304.854 308.323 691.354 318.823C1077.85 329.323 770.354 728.323 1362.35 542.823C1954.35 357.323 1357.35 156.823 1608.85 49.8234C1860.35 -57.1766 2368.85 26.3234 2312.85 191.823" stroke="#4E31FF" stroke-width="3"/>
<path d="M551.854 1604.82C530.688 1514.32 538.154 1317.52 737.354 1254.32C986.354 1175.32 1021.35 1426.82 1222.35 1292.32C1423.35 1157.82 1163.85 964.323 1438.35 900.823C1712.85 837.323 1781.35 1226.82 2020.35 1033.32C2259.35 839.823 1878.85 666.823 2241.85 654.323C2604.85 641.823 2647.85 916.823 2853.85 756.323C3059.85 595.823 3057.85 400.323 2955.85 367.323" stroke="#4E31FF"/>
<path d="M59.719 1051.95C38.8698 1019.39 18.9159 962.067 31.9571 907.026C47.3698 851.232 76.4571 807.097 161.648 756.121C360.267 638.288 328.386 878.597 486.695 790.812C645.005 703.026 369.695 341.097 749.172 341.883C1128.65 342.669 817.672 714.431 1398.77 537.169C1979.86 359.907 1413.34 182.05 1662.67 72.5022C1912 -37.0455 2396.2 33.1688 2338 189.216" stroke="#4E31FF" stroke-width="2.90476"/>
<path d="M80.8442 1068.75C59.9791 1033.29 41.3961 968.991 63.7453 913.542C90.8374 856.588 120.22 827.235 211.201 772.082C409.939 653.416 366.678 872.035 530.797 785.463C694.916 698.892 436.797 374.535 809.249 365.606C1181.7 356.678 867.249 701.201 1437.44 532.177C2007.63 363.154 1471.58 207.939 1718.75 95.8441C1965.92 -16.2511 2425.8 40.6774 2365.42 187.273" stroke="#4E31FF" stroke-width="2.80952"/>
<path d="M103.257 1086.3C82.3765 1047.94 65.1646 976.673 96.8217 920.816C135.593 862.702 165.272 848.13 262.043 788.802C460.9 669.302 406.258 866.23 576.186 780.873C746.115 695.516 505.186 408.73 870.615 390.087C1236.04 371.444 918.115 688.73 1477.4 527.944C2036.69 367.159 1531.11 234.587 1776.11 119.944C2021.11 5.30152 2456.69 48.9444 2394.11 186.087" stroke="#4E31FF" stroke-width="2.71429"/>
<path d="M126.479 1104.72C105.582 1063.47 89.7415 985.22 130.707 928.955C181.157 869.681 211.132 869.891 313.693 806.386C512.67 686.053 446.646 861.291 622.384 777.148C798.122 693.005 574.384 443.791 932.789 415.434C1291.19 387.077 969.789 677.124 1518.17 524.577C2066.55 372.029 1591.46 262.1 1834.29 144.91C2077.12 27.7194 2488.38 58.0766 2423.62 185.767" stroke="#4E31FF" stroke-width="2.61905"/>
<path d="M150.242 1124.12C129.329 1079.97 114.859 994.747 165.132 938.074C227.262 877.64 257.532 892.632 365.885 824.951C564.98 703.784 487.575 857.332 669.123 774.403C850.671 691.474 644.123 479.832 995.504 441.76C1346.88 403.689 1022 666.498 1559.48 522.189C2096.96 377.879 1652.34 290.593 1893 170.855C2133.67 51.1173 2520.62 68.1888 2453.67 186.427" stroke="#4E31FF" stroke-width="2.52381"/>
<path d="M174.392 1144.62C153.463 1097.57 140.364 1005.38 199.945 948.294C273.755 886.699 304.32 916.473 418.463 844.616C617.678 722.616 528.892 854.473 716.249 772.758C903.606 691.044 714.249 516.973 1058.61 469.187C1402.96 421.401 1074.61 656.973 1601.18 520.901C2127.75 384.83 1713.61 320.187 1952.11 197.901C2190.61 75.6156 2553.25 79.4014 2484.11 188.187" stroke="#4E31FF" stroke-width="2.42857"/>
<path d="M198.82 1166.33C177.875 1116.39 166.147 1017.22 235.036 959.733C320.525 896.977 351.386 941.533 471.32 865.499C670.653 742.666 570.486 852.833 763.653 772.333C956.82 691.833 784.653 555.333 1121.99 497.833C1459.32 440.333 1127.49 648.666 1643.15 520.833C2158.82 392.999 1775.15 350.999 2011.49 226.166C2247.82 101.333 2586.15 91.8326 2514.82 191.166" stroke="#4E31FF" stroke-width="2.33333"/>
<path d="M223.464 1189.38C202.504 1136.54 192.147 1030.39 270.344 972.498C367.513 908.582 398.669 967.919 524.393 887.71C723.845 764.043 612.298 852.519 811.274 773.234C1010.25 693.948 855.274 595.019 1185.58 527.805C1515.89 460.591 1180.58 641.686 1685.35 522.091C2190.11 402.496 1836.92 383.138 2071.08 255.757C2305.25 128.376 2619.27 105.591 2545.75 195.472" stroke="#4E31FF" stroke-width="2.2381"/>
<path d="M248.271 1213.84C227.295 1158.1 218.309 1044.98 305.814 986.679C414.662 921.603 446.114 995.722 577.629 911.336C777.2 786.836 654.271 853.622 859.057 775.55C1063.84 697.479 926.057 636.122 1249.34 559.193C1572.63 482.264 1233.84 636.122 1727.7 524.764C2221.56 413.407 1898.84 416.693 2130.84 286.764C2362.84 156.836 2652.56 120.765 2576.84 201.193" stroke="#4E31FF" stroke-width="2.14286"/>
<path d="M273.214 1239.77C252.222 1181.13 244.607 1061.05 341.42 1002.33C461.947 936.097 493.695 1025 630.999 936.435C830.69 811.102 696.38 856.197 906.976 779.34C1117.57 702.483 996.976 678.697 1313.24 592.054C1629.5 505.412 1287.24 632.031 1770.19 528.912C2253.14 425.793 1960.9 451.721 2190.74 319.245C2420.57 186.769 2685.98 137.412 2608.07 208.388" stroke="#4E31FF" stroke-width="2.04762"/>
<path d="M298.258 1267.2C277.251 1205.67 271.007 1078.6 377.128 1019.48C509.334 952.087 541.378 1055.77 684.473 963.031C884.282 836.865 738.592 860.269 954.997 784.627C1171.4 708.984 1068 722.769 1377.23 626.412C1686.47 530.055 1340.73 629.436 1812.78 534.555C2284.83 439.674 2023.07 488.246 2250.73 353.222C2478.4 218.198 2719.5 155.555 2639.4 217.079" stroke="#4E31FF" stroke-width="1.95238"/>
<path d="M323.392 1296.11C302.369 1231.68 297.496 1097.64 412.925 1038.12C556.81 969.558 589.15 1088.02 738.035 991.108C937.964 864.108 780.893 865.823 1003.11 791.394C1225.32 716.966 1139.11 768.323 1441.32 662.251C1743.54 556.18 1394.32 628.323 1855.46 541.68C2316.61 455.037 2085.32 526.251 2310.82 388.68C2536.32 251.108 2753.11 175.18 2670.82 227.251" stroke="#4E31FF" stroke-width="1.85714"/>
<path d="M348.599 1326.45C327.559 1259.13 324.058 1118.12 448.794 1058.18C604.359 988.462 636.994 1121.71 791.67 1020.62C991.718 892.785 823.266 872.808 1051.29 799.594C1279.31 726.38 1210.29 815.308 1505.48 699.523C1800.67 583.737 1447.98 628.642 1898.22 550.237C2348.46 471.832 2147.65 565.689 2370.98 425.57C2594.31 285.451 2786.79 196.237 2702.31 238.856" stroke="#4E31FF" stroke-width="1.7619"/>
<path d="M373.866 1358.15C352.811 1287.93 350.68 1139.94 484.725 1079.6C651.969 1008.72 684.9 1156.75 845.366 1051.48C1045.53 922.817 865.7 881.15 1099.53 809.15C1333.37 737.15 1281.53 863.65 1569.7 738.15C1857.87 612.65 1501.7 630.317 1941.03 560.15C2380.37 489.983 2210.03 606.483 2431.2 463.817C2652.37 321.15 2820.53 218.65 2733.87 251.817" stroke="#4E31FF" stroke-width="1.66667"/>
<path d="M399.185 1391.11C378.114 1317.99 377.354 1163.03 520.707 1102.28C699.631 1030.24 732.857 1193.05 899.114 1083.61C1099.4 954.111 908.186 890.754 1147.83 819.968C1387.47 749.183 1352.83 913.254 1633.97 778.04C1915.11 642.825 1555.47 633.254 1983.9 571.325C2412.33 509.397 2272.47 648.54 2491.47 503.325C2710.47 358.111 2854.33 242.326 2765.47 266.04" stroke="#4E31FF" stroke-width="1.57143"/>
<path d="M424.549 1425.23C403.462 1349.22 404.073 1187.28 556.734 1126.12C747.337 1052.93 780.859 1230.52 952.906 1116.9C1153.31 986.565 950.716 901.517 1196.17 831.945C1441.62 762.374 1424.17 964.017 1698.29 819.088C1972.41 674.16 1609.29 637.35 2026.81 583.66C2444.33 529.969 2334.95 691.755 2551.79 543.993C2768.62 396.231 2888.17 267.16 2797.12 281.422" stroke="#4E31FF" stroke-width="1.47619"/>
<path d="M449.951 1460.4C428.848 1381.49 430.83 1212.59 592.799 1151.02C795.081 1076.66 828.899 1269.03 1006.74 1151.24C1207.26 1020.07 993.284 913.332 1244.55 844.975C1495.81 776.618 1495.55 1015.83 1762.64 861.19C2029.74 706.547 1663.14 642.499 2069.76 597.047C2476.38 551.594 2397.47 736.023 2612.14 585.713C2826.81 435.404 2922.05 293.047 2828.81 297.856" stroke="#4E31FF" stroke-width="1.38095"/>
<path d="M475.384 1496.42C454.265 1414.61 457.619 1238.73 628.895 1176.76C842.857 1101.24 876.97 1308.39 1060.6 1186.42C1261.24 1054.42 1035.88 925.991 1292.96 858.848C1550.03 791.706 1566.96 1068.49 1827.03 904.134C2087.1 739.777 1717.03 648.491 2112.74 611.277C2508.46 574.063 2460.03 781.134 2672.53 628.277C2885.03 475.42 2955.96 319.777 2860.53 315.134" stroke="#4E31FF" stroke-width="1.28571"/>
<path d="M500.851 1532.55C479.716 1447.85 484.441 1265 665.025 1202.61C890.666 1125.93 925.075 1347.87 1114.49 1221.72C1315.26 1088.89 1078.52 938.768 1341.4 872.84C1604.28 806.911 1638.4 1121.27 1891.45 947.197C2144.49 773.126 1770.95 654.602 2155.76 625.626C2540.57 596.649 2522.61 826.364 2732.95 670.959C2943.28 515.554 2989.9 346.626 2892.28 332.531" stroke="#4E31FF" stroke-width="1.19048"/>
<path d="M526.339 1568.69C505.188 1481.09 511.284 1291.26 701.176 1228.47C938.497 1150.63 973.201 1387.35 1168.41 1257.02C1369.29 1123.36 1121.17 951.546 1389.86 886.832C1658.55 822.117 1709.86 1174.05 1955.89 990.26C2201.91 806.474 1824.89 660.713 2198.79 639.974C2572.7 619.236 2585.22 871.593 2793.39 713.641C3001.55 555.689 3023.86 373.475 2924.05 349.927" stroke="#4E31FF" stroke-width="1.09524"/>
</svg>
